# xmcd
#
# Track frame offsets:
#	150
#	9417
#	21777
#	41016
#	60670
#	67754
#	78489
#	91486
#	99405
#	108673
#	117521
#	128757
#	136358
#	148457
#
# Disc length: 2188 seconds
#
# Revision: 0
# Processed by: cddbd v1.5PL3 Copyright (c) Steve Scherf et al.
# Submitted via: dBpowerAMP V4.0
#
DISCID=c1088a0e
DTITLE=Cafeteria - Knee Deep
DYEAR=1900
DGENRE=Country
TTITLE0=Poloroids
TTITLE1=Gorgeous Friend
TTITLE2=Drunk
TTITLE3=At 24
TTITLE4=Out Walkin'
TTITLE5=Do You
TTITLE6=Stones
TTITLE7=Right
TTITLE8=I'm Running
TTITLE9=Run For Cover
TTITLE10=Condemned Man
TTITLE11=Everything's Fine
TTITLE12=Fallen
TTITLE13=Started Off With Cocaine
EXTD=Good ol' American rootz-twain.
EXTT0=
EXTT1=
EXTT2=
EXTT3=
EXTT4=
EXTT5=
EXTT6=
EXTT7=
EXTT8=
EXTT9=
EXTT10=
EXTT11=
EXTT12=
EXTT13=
PLAYORDER=
